<svg width="57" height="57" viewBox="0 0 57 57" fill="none" xmlns="http://www.w3.org/2000/svg">
<path d="M28.4999 16.2118C29.075 16.2118 29.6266 15.9833 30.0332 15.5766C30.4399 15.17 30.6683 14.6185 30.6683 14.0434C30.6683 13.4683 30.4399 12.9168 30.0332 12.5101C29.6266 12.1035 29.075 11.875 28.4999 11.875C27.9248 11.875 27.3733 12.1035 26.9667 12.5101C26.56 12.9168 26.3316 13.4683 26.3316 14.0434C26.3316 14.6185 26.56 15.17 26.9667 15.5766C27.3733 15.9833 27.9248 16.2118 28.4999 16.2118ZM42.9589 16.2118C43.2437 16.2118 43.5257 16.1557 43.7887 16.0467C44.0518 15.9377 44.2909 15.778 44.4922 15.5766C44.6936 15.3753 44.8533 15.1363 44.9622 14.8732C45.0712 14.6101 45.1273 14.3281 45.1273 14.0434C45.1273 13.7586 45.0712 13.4767 44.9622 13.2136C44.8533 12.9505 44.6936 12.7115 44.4922 12.5101C44.2909 12.3088 44.0518 12.149 43.7887 12.0401C43.5257 11.9311 43.2437 11.875 42.9589 11.875C42.3838 11.875 41.8323 12.1035 41.4257 12.5101C41.019 12.9168 40.7906 13.4683 40.7906 14.0434C40.7906 14.6185 41.019 15.17 41.4257 15.5766C41.8323 15.9833 42.3838 16.2118 42.9589 16.2118ZM14.0409 16.2118C14.3257 16.2118 14.6077 16.1557 14.8707 16.0467C15.1338 15.9377 15.3729 15.778 15.5742 15.5766C15.7756 15.3753 15.9353 15.1363 16.0443 14.8732C16.1532 14.6101 16.2093 14.3281 16.2093 14.0434C16.2093 13.7586 16.1532 13.4767 16.0443 13.2136C15.9353 12.9505 15.7756 12.7115 15.5742 12.5101C15.3729 12.3088 15.1338 12.149 14.8707 12.0401C14.6077 11.9311 14.3257 11.875 14.0409 11.875C13.4658 11.875 12.9143 12.1035 12.5077 12.5101C12.101 12.9168 11.8726 13.4683 11.8726 14.0434C11.8726 14.6185 12.101 15.17 12.5077 15.5766C12.9143 15.9833 13.4658 16.2118 14.0409 16.2118ZM28.4999 30.6684C29.075 30.6684 29.6266 30.4399 30.0332 30.0333C30.4399 29.6266 30.6683 29.0751 30.6683 28.5C30.6683 27.9249 30.4399 27.3734 30.0332 26.9667C29.6266 26.5601 29.075 26.3316 28.4999 26.3316C27.9248 26.3316 27.3733 26.5601 26.9667 26.9667C26.56 27.3734 26.3316 27.9249 26.3316 28.5C26.3316 29.0751 26.56 29.6266 26.9667 30.0333C27.3733 30.4399 27.9248 30.6684 28.4999 30.6684ZM42.9589 30.6684C43.534 30.6684 44.0856 30.4399 44.4922 30.0333C44.8989 29.6266 45.1273 29.0751 45.1273 28.5C45.1273 27.9249 44.8989 27.3734 44.4922 26.9667C44.0856 26.5601 43.534 26.3316 42.9589 26.3316C42.3838 26.3316 41.8323 26.5601 41.4257 26.9667C41.019 27.3734 40.7906 27.9249 40.7906 28.5C40.7906 29.0751 41.019 29.6266 41.4257 30.0333C41.8323 30.4399 42.3838 30.6684 42.9589 30.6684ZM14.0409 30.6684C14.616 30.6684 15.1676 30.4399 15.5742 30.0333C15.9809 29.6266 16.2093 29.0751 16.2093 28.5C16.2093 27.9249 15.9809 27.3734 15.5742 26.9667C15.1676 26.5601 14.616 26.3316 14.0409 26.3316C13.4658 26.3316 12.9143 26.5601 12.5077 26.9667C12.101 27.3734 11.8726 27.9249 11.8726 28.5C11.8726 29.0751 12.101 29.6266 12.5077 30.0333C12.9143 30.4399 13.4658 30.6684 14.0409 30.6684ZM28.4999 45.125C29.075 45.125 29.6266 44.8965 30.0332 44.4899C30.4399 44.0832 30.6683 43.5317 30.6683 42.9566C30.6683 42.3815 30.4399 41.83 30.0332 41.4234C29.6266 41.0167 29.075 40.7882 28.4999 40.7882C27.9248 40.7882 27.3733 41.0167 26.9667 41.4234C26.56 41.83 26.3316 42.3815 26.3316 42.9566C26.3316 43.5317 26.56 44.0832 26.9667 44.4899C27.3733 44.8965 27.9248 45.125 28.4999 45.125ZM42.9589 45.125C43.534 45.125 44.0856 44.8965 44.4922 44.4899C44.8989 44.0832 45.1273 43.5317 45.1273 42.9566C45.1273 42.3815 44.8989 41.83 44.4922 41.4234C44.0856 41.0167 43.534 40.7882 42.9589 40.7882C42.3838 40.7882 41.8323 41.0167 41.4257 41.4234C41.019 41.83 40.7906 42.3815 40.7906 42.9566C40.7906 43.5317 41.019 44.0832 41.4257 44.4899C41.8323 44.8965 42.3838 45.125 42.9589 45.125ZM14.0409 45.125C14.616 45.125 15.1676 44.8965 15.5742 44.4899C15.9809 44.0832 16.2093 43.5317 16.2093 42.9566C16.2093 42.3815 15.9809 41.83 15.5742 41.4234C15.1676 41.0167 14.616 40.7882 14.0409 40.7882C13.4658 40.7882 12.9143 41.0167 12.5077 41.4234C12.101 41.83 11.8726 42.3815 11.8726 42.9566C11.8726 43.5317 12.101 44.0832 12.5077 44.4899C12.9143 44.8965 13.4658 45.125 14.0409 45.125Z" fill="#0D6EFF" stroke="#0D6EFF" stroke-width="3.5625" stroke-linecap="round" stroke-linejoin="round"/>
</svg>
